<?xml version="1.0" standalone="no"?>
<!DOCTYPE svg PUBLIC "-//W3C//DTD SVG 20010904//EN"
 "http://www.w3.org/TR/2001/REC-SVG-20010904/DTD/svg10.dtd">
<svg version="1.0" xmlns="http://www.w3.org/2000/svg"
 width="700.000000pt" height="700.000000pt" viewBox="0 0 700.000000 700.000000"
 preserveAspectRatio="xMidYMid meet">
<metadata>
Created by potrace 1.14, written by Peter Selinger 2001-2017
</metadata>
<g transform="translate(0.000000,700.000000) scale(0.100000,-0.100000)"
fill="#000000" stroke="none">
<path d="M1379 6237 c-69 -219 -131 -402 -138 -411 -7 -8 -86 -11 -255 -11
-134 1 -243 -2 -241 -5 2 -3 92 -68 199 -145 190 -135 196 -141 191 -170 -3
-16 -36 -124 -74 -240 -38 -115 -68 -211 -66 -213 1 -2 79 52 171 120 93 68
184 134 202 147 l32 22 113 -80 c61 -45 152 -110 201 -146 49 -36 91 -64 92
-62 3 2 -108 347 -144 448 -8 24 -2 30 136 130 80 57 150 109 156 114 6 6 30
23 54 39 24 16 45 32 47 36 2 3 -107 6 -242 5 -135 0 -248 2 -252 5 -7 4 -47
124 -135 402 -11 37 -23 68 -26 68 -3 0 -12 -24 -21 -53z"/>
<path d="M3472 6217 c-12 -39 -47 -146 -76 -237 l-53 -165 -251 1 c-138 0
-249 -2 -247 -5 2 -3 92 -69 199 -146 107 -77 195 -146 196 -154 0 -7 -18 -68
-40 -135 -94 -287 -108 -331 -105 -334 1 -2 92 63 201 142 110 80 201 146 204
146 3 0 95 -66 204 -145 110 -80 200 -144 202 -143 1 2 -29 98 -67 213 -38
116 -71 224 -74 240 -5 28 0 34 97 102 156 110 272 193 286 207 9 9 -42 12
-234 11 -154 0 -249 4 -254 10 -10 12 -150 435 -150 453 0 32 -17 5 -38 -61z"/>
<path d="M5579 6237 c-68 -218 -134 -413 -140 -417 -5 -3 -118 -5 -253 -5
-135 1 -243 -1 -241 -4 2 -3 92 -69 199 -146 107 -77 195 -147 195 -155 1 -8
-33 -116 -74 -240 -41 -123 -73 -226 -71 -227 1 -2 43 26 92 62 49 36 105 76
124 89 19 13 69 49 110 80 41 31 77 56 80 56 3 0 95 -66 204 -145 110 -80 201
-144 202 -142 2 2 -5 28 -15 58 -11 30 -42 126 -70 214 -29 88 -56 168 -61
177 -11 20 7 36 184 163 54 39 103 75 109 80 7 6 31 23 55 39 24 16 45 32 47
36 2 4 -109 6 -247 6 l-251 -1 -14 50 c-8 28 -19 59 -24 70 -4 11 -22 65 -39
120 -17 55 -35 107 -39 115 -4 8 -14 39 -21 68 -8 28 -16 52 -19 52 -3 0 -13
-24 -22 -53z"/>
<path d="M0 3850 l0 -700 3500 0 3500 0 0 700 0 700 -3500 0 -3500 0 0 -700z"/>
<path d="M0 1750 l0 -700 3500 0 3500 0 0 700 0 700 -3500 0 -3500 0 0 -700z"/>
</g>
</svg>
